<?xml version="1.0" encoding="utf-8" ?>
<svg xmlns="http://www.w3.org/2000/svg" xmlns:xlink="http://www.w3.org/1999/xlink" width="1024" height="1024">
<rect width="100%" height="100%" fill="rgba(225,219,200, .55)" rx="1000px" ry="1000px"  />
	<path fill="#CBB53A" transform="scale(1.6 1.6)" d="M483.963 229.059C485.421 227.512 487.739 226.524 489.662 225.699L490.685 226.763L484.131 231.168C483.932 230.969 484.073 231.089 483.615 230.882L483.963 229.059Z"/>
	<path fill="#CBB53A" transform="scale(1.6 1.6)" d="M148.18 108.155L148.569 108.397C151.039 109.91 154.834 110.356 156.846 112.031C155.923 113.268 151.503 114.279 149.923 115.122L148.124 114.511C151.851 111.356 151.5 113.51 147.093 109.183L148.18 108.155Z"/>
	<path fill="#D3BD49" transform="scale(1.6 1.6)" d="M489.662 225.699L490.808 224.808C479.672 217.809 483.78 221.286 476.059 209.286C474.462 211.345 468.232 220.445 466.397 221.375C468.054 218.629 474.115 209.049 476.184 206.645L476.331 207.035C479.842 216.088 485.972 223.333 496.318 223.879L490.685 226.763L489.662 225.699Z"/>
	<path fill="#D3BD49" transform="scale(1.6 1.6)" d="M473.412 227.063C468.554 223.63 466.426 224.729 460.814 224.848L460.695 224.28C466.948 221.579 469.571 221.874 475.245 226.471L481.086 231.955L483.963 229.059L483.615 230.882C484.073 231.089 483.932 230.969 484.131 231.168L481.957 232.975L482.309 238.034C479.721 233.589 477.168 230.587 473.412 227.063Z"/>
	<path fill="#D3BD49" transform="scale(1.6 1.6)" d="M134.425 112.494C139.97 107.999 140.88 103.772 143.525 97.4637C144.295 102.643 144.414 104.387 148.18 108.155L147.093 109.183L143.488 104.204C140.933 107.976 140.159 111.072 135.89 113.438L135.797 114.023C138.687 115.796 141.029 117.777 143.559 119.999C144.811 118.17 146.204 115.701 148.124 114.511L149.923 115.122C146.219 117.818 144.958 121.432 143.835 125.667L142.251 122.928C140.145 119.279 136.309 115.974 132.2 114.955L127.945 113.67C130.087 113.037 132.242 112.898 134.425 112.494Z"/>
	<path fill="#D3BD49" transform="scale(1.6 1.6)" d="M141.343 169.519L134.464 166.581C141.431 164.537 145.488 158.282 146.7 151.245L147.379 148.179C149.492 153.968 145.375 154.173 150.704 162.274C152.959 164.638 154.81 166.066 157.723 167.541C155.254 168.271 152.982 169.03 150.673 170.197L150.669 170.24C148.967 171.762 148.339 173.087 147.484 175.166C145.847 172.825 143.617 171.193 141.343 169.519ZM141.35 167.637C145.414 170.478 146.347 172.328 150.24 168.511L151.593 166.48L149.872 164.019L146.637 159.008L141.35 167.637Z"/>
	<path fill="#D09602" transform="scale(1.6 1.6)" d="M442.197 76.4062C444.657 75.6083 447.06 80.3285 448.219 82.0837C473.622 120.565 444.26 171.915 424.379 206.562L410.72 229.881L369.435 295.998C366.295 301.448 363.844 307.497 360.286 312.668L370.298 333.862C373.61 341.627 375.581 345.592 379.498 353.088C386.535 366.554 387.474 372.174 402.876 361.833C432.301 342.076 468.748 348.401 490.679 376.078C538.345 436.234 454.164 510.576 403.704 464.219C397.023 458.081 392.323 450.588 387.276 443.147L328.035 358.079C326.187 355.32 324.489 352.469 322.414 349.869L280.399 407.792C252.244 446.857 222.844 502.907 165.756 466.134C121.158 437.476 133.613 368.715 184.6 352.747C202.098 347.268 220.07 350.086 235.469 359.799C241.418 363.551 246.945 368.323 253.182 371.551C256.29 367.906 258.737 363.54 261.184 359.429L280.969 322.138C284.642 315.215 288.236 314.202 285.291 308.388L247.743 238.327L216.872 184.13C200.518 153.785 182.575 120.73 199.014 85.75C200.693 82.1767 204.896 72.7215 209.127 78.8466L225.061 103.985L323.791 251.733C327.258 243.213 333.097 236.557 338.043 228.908L434.384 86.5625C436.741 83.0457 438.891 79.1306 442.197 76.4062ZM438.1 367.639C411.825 368.636 396.329 390.973 397.33 416.221C398.267 439.866 418.42 459.264 442.578 458.325C498.126 455.585 496.665 369.025 438.1 367.639ZM197.636 368.256C190.239 368.917 183.601 370.67 177.401 374.894L176.972 375.182C142.996 398.468 155.568 461.667 201.639 458.978C255.384 455.346 254.645 362.147 197.636 368.256ZM207.094 90.7812C191.796 117.92 209.227 150.061 222.049 174.348L250.238 224.947L292.644 295.019L294.766 298.673C293.874 284.418 284.871 272.029 278.632 259.618C274.252 250.907 270.488 241.746 265.673 233.28L247.487 203.292L227.341 165.077C219.436 149.36 212.277 135.06 209.854 117.308C209.374 113.792 210.738 90.7971 207.094 90.7812ZM306.573 298.356C306.677 301.139 308.182 303.09 307.297 305.901C306.791 306.86 306.323 307.887 305.713 308.782C307.384 310.188 308.587 312.38 310.054 314.035C315.306 319.958 322.008 325.874 329.687 328.148C338.298 330.698 349.943 331.365 358.088 326.994C356.059 318.459 351.044 311.254 346.666 303.796L335.178 284.585C334.258 297.061 316.914 302.366 308.365 293.542L308.026 293.188C307.277 294.666 306.978 296.728 306.573 298.356ZM441.714 88.1645C439.891 97.5349 440.923 107.151 440.633 116.659C439.713 146.761 417.429 183.847 402.887 209.475C395.702 222.136 385.46 235.563 384.96 250.684C386.359 249.379 387.673 248.117 388.851 246.602C399.99 231.481 408.991 215.216 417.965 198.783C431.894 173.277 452.841 136.048 448.437 106.152C447.478 99.6421 444.667 93.9554 441.714 88.1645ZM384.841 256.055C377.155 261.615 369.971 267.088 364.269 274.736C361.538 278.399 353.947 291.285 348.75 291.048L348.492 291.25C349.629 294.273 351.251 297.184 352.833 299.997L355.599 304.407L384.841 256.055ZM257.088 378.431C257.234 379.568 257.492 380.47 257.95 381.521L259.635 380.682C265.403 377.013 270.598 366.322 273.873 360.587L284.095 343.164C288.543 336.145 295.097 329.747 296.745 321.349L293.198 317.335C289.315 327.7 265.517 373.03 257.439 378.211L257.088 378.431ZM318.037 274.461C308.363 277.058 308.538 293.805 320.234 291.084C329.542 287.732 327.858 273.875 318.037 274.461ZM368.551 356.032C369.184 356.099 368.855 356.127 369.531 355.897L370.04 353.037L369.97 352.581C369.697 350.744 369.466 349.079 370.293 347.344C368.194 342.476 366.118 340.745 362.372 337.392L354.856 337.343C359.721 342.48 365.756 349.415 368.551 356.032Z"/>
	<path fill="#FDF1A9" transform="scale(1.6 1.6)" d="M243.684 377.365L243.603 376.822C244.565 376.989 246.452 378.457 247.5 378.906L247.659 378.75C247.407 378.138 247.422 378.373 247.459 377.755L246.135 376.76C244.992 376.815 245.022 376.723 244.222 375.938L244.456 374.559C246.163 375.807 247.771 376.933 249.688 377.843L250.195 378.089C252.168 379.007 254.995 379.004 257.088 378.431C257.234 379.568 257.492 380.47 257.95 381.521C252.65 381.714 248.072 380.277 243.684 377.365Z"/>
	<path fill="#FDF1A9" transform="scale(1.6 1.6)" d="M401.281 370.982L402.681 371.704C402.281 372.129 401.909 372.419 401.416 372.731L400.391 372.266C399.668 373.028 399.467 373.339 399.287 374.374L397.341 376.094C398.071 376.094 397.58 376.188 398.125 375.861L399.741 374.659C400.185 374.266 399.988 374.403 400.625 374.219L402.317 372.827L402.542 373.333C399.201 376.21 394.144 379.86 390.053 381.515C388.014 382.533 386.865 382.785 385.015 381.39L385.965 380.061C386.998 379.699 387.913 379.186 388.869 378.658L389.321 378.7C393.646 376.711 397.583 373.963 401.281 370.982Z"/>
	<path fill="#F0D862" transform="scale(1.6 1.6)" d="M370.04 353.037L374.889 363.078C378.273 367.964 382.814 377.042 388.869 378.658C387.913 379.186 386.998 379.699 385.965 380.061L385.015 381.39C380.732 377.649 377.17 372.234 374.555 367.18C372.31 363.732 370.113 359.837 368.551 356.032C369.184 356.099 368.855 356.127 369.531 355.897L370.04 353.037Z"/>
	<defs>
		<linearGradient id="gradient_0" gradientUnits="userSpaceOnUse" x1="226.2052" y1="461.1796" x2="219.01607" y2="451.4769">
			<stop offset="0" stop-color="#FDE770"/>
			<stop offset="1" stop-color="#FFFFA4"/>
		</linearGradient>
	</defs>
	<path fill="url(#gradient_0)" transform="scale(1.6 1.6)" d="M194.176 465.709C207.22 466.987 219.6 464.157 229.987 455.609C239.05 448.15 243.008 437.117 248.604 427.234C242.366 454.994 223.17 470.844 194.472 467.676C195.6 466.858 195.223 466.819 194.481 466.04L194.176 465.709Z"/>
	<defs>
		<linearGradient id="gradient_1" gradientUnits="userSpaceOnUse" x1="163.77679" y1="452.85367" x2="172.23318" y2="444.49127">
			<stop offset="0" stop-color="#F6E272"/>
			<stop offset="1" stop-color="#FFFFAF"/>
		</linearGradient>
	</defs>
	<path fill="url(#gradient_1)" transform="scale(1.6 1.6)" d="M150.417 396.665L151.34 397.312C143.233 427.506 162.577 461.355 194.176 465.709L194.481 466.04C195.223 466.819 195.6 466.858 194.472 467.653C159.29 465.784 142.248 427.716 150.417 396.665Z"/>
	<defs>
		<linearGradient id="gradient_2" gradientUnits="userSpaceOnUse" x1="438.31912" y1="356.20514" x2="443.5184" y2="390.31171">
			<stop offset="0" stop-color="#FFE859"/>
			<stop offset="1" stop-color="#FAEC9C"/>
		</linearGradient>
	</defs>
	<path fill="url(#gradient_2)" transform="scale(1.6 1.6)" d="M401.281 370.982C429.193 349.562 462.507 350.673 484.634 379.396L487.102 382.78L487.031 383.953C486.096 384.429 485.359 384.122 484.336 383.975L484.146 383.66C468.862 358.773 436.284 351.777 411.659 366.776C408.521 368.688 405.899 371.325 402.778 373.196L402.542 373.333L402.317 372.827L400.625 374.219C399.988 374.403 400.185 374.266 399.741 374.659L398.125 375.861C397.58 376.188 398.071 376.094 397.341 376.094L399.287 374.374C399.467 373.339 399.668 373.028 400.391 372.266L401.416 372.731C401.909 372.419 402.281 372.129 402.681 371.704L401.281 370.982Z"/>
	<defs>
		<linearGradient id="gradient_3" gradientUnits="userSpaceOnUse" x1="203.1407" y1="355.49481" x2="196.90112" y2="402.88553">
			<stop offset="0" stop-color="#FCE23D"/>
			<stop offset="1" stop-color="#FFFFE6"/>
		</linearGradient>
	</defs>
	<path fill="url(#gradient_3)" transform="scale(1.6 1.6)" d="M193.741 357.119C200.288 356.043 207.546 355.881 214.062 357.065L214.411 357.126C224.449 358.937 236.955 367.11 244.405 374.462L244.456 374.559L244.222 375.938C245.022 376.723 244.992 376.815 246.135 376.76L247.459 377.755C247.422 378.373 247.407 378.138 247.659 378.75L247.5 378.906C246.452 378.457 244.565 376.989 243.603 376.822L243.684 377.365C242.26 376.756 241.076 375.641 239.844 374.716L234.114 370.606C221.26 361.85 209.468 358.705 194.18 359.843C173.71 364.212 158.023 377.612 151.34 397.312L150.417 396.665C156.7 376.6 173.073 361.577 193.741 357.119Z"/>
	<path fill="#F0D862" transform="scale(1.6 1.6)" d="M487.102 382.78C502.77 404.019 495.454 440.006 474.528 455.221C457.98 467.251 424.385 472.562 408.175 457.201C398.777 449.395 393.184 437.771 388.752 426.613C397.245 435.439 402.434 446.955 411.413 455.503C426.512 468.659 450.767 465.699 467.188 456.922C487.637 445.991 498.165 416.564 489.842 394.975C488.37 391.157 486.308 387.554 484.336 383.975C485.359 384.122 486.096 384.429 487.031 383.953L487.102 382.78Z"/>
	<path fill="#D09602" transform="scale(1.6 1.6)" d="M321.346 302.861C332.822 301.546 338.847 315.516 328.337 320.766C317.567 322.962 310.515 307.098 321.346 302.861Z"/>
</svg>
