<?xml version="1.0" encoding="utf-8" ?>
<svg xmlns="http://www.w3.org/2000/svg" xmlns:xlink="http://www.w3.org/1999/xlink" width="1024" height="1024">
<rect width="100%" height="100%" fill="rgba(225,219,200, .55)" rx="1000px" ry="1000px"  />
	<path fill="white" transform="scale(1.6 1.6)" d="M387.807 232.944L387.536 220.391C387.561 217.977 387.412 215.28 387.961 212.931C392.587 213.458 396.707 213.583 401.208 215.019C402.808 219.947 404.37 226.61 402.209 231.562L402.347 232.344C402.748 232.576 403.357 232.83 403.675 233.152L387.807 232.944Z"/>
	<path fill="#D09602" transform="scale(1.6 1.6)" d="M387.481 232.784L403.675 233.053C406.479 241.278 407.51 258.619 403.929 266.227C402.443 269.385 399.605 271.837 398.274 274.926C393.867 277.84 390.487 281.201 387.09 285.211L387.481 232.784Z"/>
	<path fill="#D09602" transform="scale(1.6 1.6)" d="M193.302 276.669C193.17 274.459 192.995 274.496 191.671 272.708C182.815 260.747 185.463 246.248 187.939 232.58L188.522 232.658C193.824 233.339 199.487 233.119 204.827 232.909C205.276 233.765 205.046 235.339 205.05 236.321L205.088 286.758C202.407 283.74 198.349 274.52 193.594 274.754L193.302 276.669Z"/>
	<path fill="#A75500" transform="scale(1.6 1.6)" d="M193.302 276.669L193.594 274.754C198.349 274.52 202.407 283.74 205.34 286.758C209.281 298.572 214.903 323.63 225.437 330.818C242.136 342.212 246.649 322.275 260.201 319.712C274.122 317.08 325.243 317.637 336.045 321.792C341.63 323.94 344.459 329.054 349.427 331.784C366.232 341.019 373.638 318.281 378.034 306.819C380.811 299.579 383.627 292.152 387.09 285.211C390.487 281.201 393.867 277.84 398.274 274.926C401.109 287.904 403.637 301.658 404.314 314.923C407.367 374.744 382.678 436.589 338.928 477.604C329.608 486.341 320.043 493.881 308.698 499.85C298.012 505.472 302.306 504.457 290.642 503.682C290.338 511.885 287.6 510.145 285.518 503.602C284.075 499.07 262.495 485.018 257.241 480.484C201.213 432.12 175.699 360.668 191.095 288.624L192.454 281.556C192.695 279.977 192.806 278.183 193.302 276.669Z"/>
	<path fill="white" transform="scale(1.6 1.6)" d="M292.947 343.239C303.684 342.571 318.915 347.311 320.057 359.998C316.551 361.06 312.33 360.533 308.671 360.456L295.77 360.358L273.557 360.923C269.71 361.192 269.378 359.585 268.013 356.129L269.045 354.688C274.189 348.344 285.153 344.057 292.947 343.239Z"/>
</svg>
