<?xml version="1.0" encoding="utf-8" ?>
<svg xmlns="http://www.w3.org/2000/svg" xmlns:xlink="http://www.w3.org/1999/xlink" width="1024" height="1024">
<rect width="100%" height="100%" fill="rgba(225,219,200, .55)" rx="1000px" ry="1000px"  />
	<path fill="#723B01" d="M609.945 938.173L681.314 938.716C675.702 953.685 667.361 965.456 652.422 972.264C647.261 974.615 641.554 976.426 635.923 977.144C628.786 978.054 621.201 977.488 614.001 977.489L573.847 977.479L574.747 976.799L574.745 975.75C579.044 974.548 583.545 972.372 587.289 969.913L587.997 969.441C593.089 966.141 599.652 959.895 602.856 954.774C604.861 951.57 606.356 948.705 607.71 945.196C608.618 942.844 609.4 940.643 609.945 938.173Z"/>
	<path fill="#E1E1DE" d="M572.991 125.971L577.875 123.909C587.197 119.501 598.369 110.697 602.067 100.81C603.586 96.7507 604.059 92.3821 605.628 88.3346C607.142 84.4296 609.893 80.6249 613.937 79.0704C619.15 77.0659 625.373 79.7574 630.171 81.7865C630.867 76.9376 632.469 71.807 634.359 67.2954C639.012 56.1893 647.321 46.7841 658.704 42.3502C670.728 37.6664 684.202 37.224 696.105 42.4879C707.047 47.3266 716.573 56.5773 720.871 67.8092L720.765 68.2132C720.056 71.1146 720.276 74.0747 719.785 77.005C717.546 90.3567 712.94 104.615 700.677 112.029C692.05 117.244 680.404 119.16 670.615 121.287C649.285 125.922 627.749 129.633 605.98 131.465L586.13 132.855C581.821 133.049 577.259 132.856 573 133.524L572.991 125.971Z"/>
	<path fill="#995503" d="M376.979 937.965L408.548 937.955L547.872 938.015L589.191 938.023C595.908 938.025 603.293 937.431 609.945 938.173C609.4 940.643 608.618 942.844 607.71 945.196C606.356 948.705 604.861 951.57 602.856 954.774C599.652 959.895 593.089 966.141 587.997 969.441L587.289 969.913C583.545 972.372 579.044 974.548 574.745 975.75L574.747 976.799L573.847 977.479L539.509 977.486L472.005 977.455L431.057 977.541C423.351 977.579 415.188 978.103 407.542 977.373C401.856 976.83 396.288 975.325 391.05 973.065C374.783 966.046 365.336 954.238 358.922 938.069L376.979 937.965Z"/>
	<path fill="#D19702" d="M466.232 194.346L466.034 91.8452L572.748 92.0606C573.606 94.4423 573.033 98.5567 573.031 101.227L572.991 125.971L573 133.524L573.005 145.657C573.023 147.728 572.442 153.199 573.228 154.851L573.425 194.37L466.232 194.346Z"/>
	<path fill="#BDB3A5" d="M573 133.524C577.259 132.856 581.821 133.049 586.13 132.855L605.98 131.465C627.749 129.633 649.285 125.922 670.615 121.287C680.404 119.16 692.05 117.244 700.677 112.029C712.94 104.615 717.546 90.3567 719.785 77.005C720.276 74.0747 720.056 71.1146 720.765 68.2132L720.871 67.8092C724.832 77.5317 725.129 87.4095 724.867 97.7604C737.246 102.764 747.494 111.613 752.747 124.056C757.035 134.212 757.155 146.39 752.929 156.577C748.291 167.753 739.777 176.675 728.471 181.174C722.924 183.381 717.603 184.155 711.768 185.071C707.207 199.835 700.791 211.727 686.647 219.268C676.774 224.532 664.35 226.249 653.586 222.953C646.493 220.78 640.051 217.166 634.944 211.716C629.068 206.277 627.075 198.158 622.031 191.966C615.093 183.449 605.062 177.557 596.293 171.096C588.795 165.571 581.327 159.425 573.228 154.851C572.442 153.199 573.023 147.728 573.005 145.657L573 133.524Z"/>
	<path fill="#E1E1DE" d="M573.005 145.657C576.077 145.964 579.063 147.013 582.03 147.835L597.823 152.133C625.276 159.34 652.224 165.988 678.922 175.82C683.987 177.685 690.18 179.297 694.494 182.596C691.143 194.174 686.059 204.928 675 211.05C665.663 216.219 653.687 216.928 643.503 213.851C640.6 212.975 638.075 211.289 634.944 211.716C629.068 206.277 627.075 198.158 622.031 191.966C615.093 183.449 605.062 177.557 596.293 171.096C588.795 165.571 581.327 159.425 573.228 154.851C572.442 153.199 573.023 147.728 573.005 145.657Z"/>
	<path fill="#41392E" d="M444.549 227.332L444.191 205.78C444.383 202.53 444.617 198.974 447.284 196.751C452.01 192.812 460.496 194.027 466.232 194.346L573.425 194.37C578.957 194.25 588.186 192.868 592.381 197.17C593.137 197.945 594.069 199.104 594.36 200.151C595.148 202.988 594.778 206.661 594.783 209.613L594.768 226.982L610.789 227.031L610.874 233.123L610.931 263.75C610.975 266.752 612.038 276.191 610.238 278.345C609.944 278.697 609.575 278.936 609.21 279.2L607.865 278.692C604.53 277.778 599.147 278.413 595.557 278.384L564.257 278.216L482.259 278.153L438.11 278.207C435.612 278.27 433.054 278.158 430.754 279.232L430.446 233.299L430.296 227.346L444.549 227.332Z"/>
	<path fill="#A17333" d="M444.549 227.332L515.431 227.01L515.081 233.494L430.446 233.299L430.296 227.346L444.549 227.332Z"/>
	<path fill="#995503" d="M515.431 227.01L594.768 226.982L610.789 227.031L610.874 233.123L610.175 233.75L609.268 233.621C606.013 233.194 602.396 233.482 599.096 233.481L580.268 233.475L515.081 233.494L515.431 227.01Z"/>
	<path fill="#482102" d="M444.549 227.332L444.191 205.78C444.383 202.53 444.617 198.974 447.284 196.751C452.01 192.812 460.496 194.027 466.232 194.346L573.425 194.37C578.957 194.25 588.186 192.868 592.381 197.17C593.137 197.945 594.069 199.104 594.36 200.151C595.148 202.988 594.778 206.661 594.783 209.613L594.768 226.982L515.431 227.01L444.549 227.332Z"/>
	<path fill="#D19702" d="M430.754 279.232C433.054 278.158 435.612 278.27 438.11 278.207L482.259 278.153L564.257 278.216L595.557 278.384C599.147 278.413 604.53 277.778 607.865 278.692L609.21 279.2L609.667 279.704C612.168 282.302 616.689 284.238 619.744 286.231C624.907 289.6 629.858 293.295 634.563 297.278C663.015 321.36 682.614 359.272 683.455 396.791L683.547 502.894L683.533 713.884L683.536 853.561L683.745 896.96L683.911 922.844C683.697 928.3 683.134 933.545 681.314 938.716L609.945 938.173C603.293 937.431 595.908 938.025 589.191 938.023L547.872 938.015L408.548 937.955L376.979 937.965L358.922 938.069C356.627 929.443 357.826 918.857 357.86 909.928L357.952 873.163L357.975 726.506L357.983 497.105L357.974 428.31C357.975 413.358 357.287 397.978 359.101 383.118C363.377 348.098 381.449 315.933 408.943 293.907C412.797 290.82 416.827 287.373 421.004 284.744C423.892 282.926 427.819 281.818 430.336 279.653L430.754 279.232Z"/>
	<path fill="#723B01" d="M376.952 720.307C370.104 695.672 372.403 668.373 372.407 643.023C372.41 625.19 371.901 607.254 373.463 589.477C374.032 582.987 375.301 576.77 376.63 570.41C377.845 577.122 376.77 584.789 377.309 591.662L377.359 592.257L377.457 596.959L376.952 720.307Z"/>
	<path fill="#E1E1DE" d="M448.441 551.543L462.316 551.411C468.322 551.278 476.786 550.083 481.482 554.573C485.113 558.044 485.519 562.522 485.764 567.234C486.115 573.992 485.809 581.777 480.813 586.941C478.073 589.773 474.892 590.365 471.125 590.51L455.407 590.521C450.713 590.51 446.246 590.856 441.877 588.784C437.504 586.71 434.24 581.619 432.856 577.171C431.283 572.115 431.991 566.397 434.444 561.735C437.567 555.799 442.349 553.431 448.441 551.543Z"/>
	<path fill="#E1E1DE" d="M574.8 552.73L597.038 552.979C600.02 552.993 604.112 552.521 606.92 553.43C609.526 554.274 611.566 556.416 613.471 558.287C613.68 564.83 614.019 571.427 613.593 577.967C613.443 580.283 613.359 582.807 611.865 584.713C608.328 589.225 603.22 590.351 597.857 590.836L585.192 590.503C580.592 590.533 574.863 591.331 570.406 590.363C568.94 590.045 567.439 589.165 566.25 588.278C562.209 585.263 559.897 580.784 559.25 575.817C558.52 570.212 559.394 563.111 562.976 558.617C566.018 554.8 570.115 553.314 574.8 552.73Z"/>
	<path fill="#E1E1DE" d="M459.474 289.638C460.851 289.536 462.374 289.349 463.729 289.665C465.973 290.188 467.718 291.347 468.969 293.25C468.552 294.783 467.68 295.75 466.544 296.833C463.398 299.832 459.506 302.161 456.166 304.963C449.196 310.808 442.73 317.86 437.02 324.936C431.189 332.163 425.586 339.926 421.151 348.106C418.819 352.407 417.132 357.202 414.429 361.283C413.188 363.157 411.473 364.934 409.497 366.038C405.501 368.272 398.385 367.957 394.01 366.861C389.681 365.711 386.705 364.196 383.139 361.581C385.819 351.322 390.371 342.586 396.319 333.856C410.99 312.322 433.475 294.542 459.474 289.638Z"/>
	<path fill="#482102" d="M516.433 483.972C520.367 484.247 524.608 483.215 528.5 482.615C557.019 478.218 584.263 465.572 608.875 450.859L624.793 441.035C629.18 438.253 636.123 432.458 641.346 432.044C635.225 441.522 628.052 449.403 620.018 457.278C595.51 481.298 563.281 501.279 529.5 508.512L516.228 510.799C515.786 506.012 516.069 500.961 516.054 496.146C516.042 492.252 515.598 487.765 516.433 483.972Z"/>
	<path fill="#723B01" d="M409.098 484.278L409.199 483.83C409.852 480.605 409.548 477.124 409.476 473.842L437.238 479.713C448.86 481.879 460.881 483.223 472.692 483.775L501.185 484.14C505.952 484.071 511.768 483.31 516.433 483.972C515.598 487.765 516.042 492.252 516.054 496.146C516.069 500.961 515.786 506.012 516.228 510.799L515.283 510.985C507.781 512.378 499.963 512.083 492.375 511.701C463.121 510.227 433.404 502.146 408.983 485.556L409.098 484.278Z"/>
	<path fill="#BDB3A5" d="M377.02 455.794C375.41 447.381 376.8 438.429 376.923 429.934C377.157 413.83 376.817 397.846 378.077 381.764C388.293 385.6 398.259 387.216 409.041 388.554L409.098 484.278L408.983 485.556C395.558 479.314 386.609 466.421 377.02 455.794Z"/>
	<path fill="#F2D998" d="M377.02 455.794C386.609 466.421 395.558 479.314 408.983 485.556L408.867 635.591C397.914 630.683 388.452 618.546 383.131 608.077C381.289 604.452 380.054 600.086 377.457 596.959L377.359 592.257L377.02 455.794Z"/>
	<path fill="#723B01" d="M516.984 413.699C544.351 424.72 573.109 434.774 603 428.351C610.169 426.81 616.703 424.189 623.422 421.309C637.92 415.094 650.067 406.379 661.185 395.283C657.445 403.939 653.434 412.101 648.841 420.344C646.619 424.329 644.498 428.688 641.346 432.044C636.123 432.458 629.18 438.253 624.793 441.035L608.875 450.859C584.263 465.572 557.019 478.218 528.5 482.615C524.608 483.215 520.367 484.247 516.433 483.972C516.915 477.691 516.595 471.605 516.551 465.326L516.169 433.881C516.051 428.477 515.085 421.519 515.987 416.25C516.152 415.287 516.488 414.526 516.984 413.699Z"/>
	<path fill="#F2D998" d="M376.979 937.965L377.305 724.863L397.45 766C400.91 772.694 404.046 780.029 408.686 785.985L408.979 786.594L408.548 937.955L376.979 937.965Z"/>
	<path fill="#482102" d="M613.015 642.882L613.55 642.707C629.702 637.251 647.38 626.641 655.112 610.823C660.196 600.421 660.675 589.365 659.122 578.051C658.844 576.028 656.286 566.574 656.528 565.5C656.568 565.325 656.846 565.333 657.005 565.25C659.456 568.622 660.386 575.206 661.538 579.279C672.151 616.814 673.765 658.338 667.638 696.765C664.452 716.744 659.09 736.775 650.949 755.331C646.825 764.729 641.656 773.954 636.442 782.779C629.463 794.593 621.888 805.86 612.366 815.795L612.549 792.343L612.731 792.186C613.655 788.465 613.063 783.607 613.067 779.76L613.074 753.046L613.015 642.882Z"/>
	<path fill="#995503" d="M409.041 388.554C420.281 389.277 431.73 388.637 442.919 389.785C458.522 391.386 473.758 396.118 488.395 401.582C498.061 405.19 507.76 409.068 516.984 413.699C516.488 414.526 516.152 415.287 515.987 416.25C515.085 421.519 516.051 428.477 516.169 433.881L516.551 465.326C516.595 471.605 516.915 477.691 516.433 483.972C511.768 483.31 505.952 484.071 501.185 484.14L472.692 483.775C460.881 483.223 448.86 481.879 437.238 479.713L409.476 473.842C409.548 477.124 409.852 480.605 409.199 483.83L409.098 484.278L409.041 388.554Z"/>
	<path fill="#995503" d="M377.457 596.959C380.054 600.086 381.289 604.452 383.131 608.077C388.452 618.546 397.914 630.683 408.867 635.591L408.941 636.14C412.812 637.362 416.427 639.957 420.173 641.598C432.295 646.909 442.683 648.271 455.766 648.258C456.224 648.257 459.965 648.389 460.139 648.246C460.165 648.225 461.465 640.226 461.696 639.399C463.028 634.626 465.188 630.427 468.735 626.934C472.655 623.074 477.699 620.597 483.073 619.486C487.347 618.603 492.062 618.773 496.413 618.817L515.169 619.075L548.271 619.103C557.904 619.26 565.654 620.893 572.675 628.026C576.092 631.498 578.188 635.076 579.539 639.75L579.778 640.562C580.486 643.055 580.69 645.54 580.905 648.109C584.901 648.094 589.032 648.234 593.003 647.804C599.783 647.071 606.572 645.047 613.015 642.882L613.074 753.046L613.067 779.76C613.063 783.607 613.655 788.465 612.731 792.186L612.549 792.343L611.917 793.118C609.416 796.332 608.104 801.454 606.194 805.184C603.176 811.081 599.588 816.862 595.851 822.324C582.875 841.292 565.831 855.99 547.931 870.105C538.055 877.892 528.059 885.566 517.471 892.367L497.74 905.007C496.018 897.559 494.423 890.177 491.821 882.966C479.906 849.938 455.644 822.756 434.999 794.959C431.898 802.785 429.879 810.789 428.105 818.999C421.585 808.097 416.833 796.805 408.979 786.594L408.686 785.985C404.046 780.029 400.91 772.694 397.45 766L377.305 724.863L376.952 720.307L377.457 596.959Z"/>
	<path fill="#BDB3A5" d="M377.457 596.959C380.054 600.086 381.289 604.452 383.131 608.077C388.452 618.546 397.914 630.683 408.867 635.591L408.941 636.14L408.944 738.257L408.916 769.9C408.911 775.169 409.277 780.754 408.686 785.985C404.046 780.029 400.91 772.694 397.45 766L377.305 724.863L376.952 720.307L377.457 596.959Z"/>
	<path fill="#723B01" d="M548.271 619.103C557.904 619.26 565.654 620.893 572.675 628.026C576.092 631.498 578.188 635.076 579.539 639.75L579.778 640.562C580.486 643.055 580.69 645.54 580.905 648.109C584.901 648.094 589.032 648.234 593.003 647.804C599.783 647.071 606.572 645.047 613.015 642.882L613.074 753.046L613.067 779.76C613.063 783.607 613.655 788.465 612.731 792.186L612.549 792.343L611.917 793.118C609.416 796.332 608.104 801.454 606.194 805.184C603.176 811.081 599.588 816.862 595.851 822.324C582.875 841.292 565.831 855.99 547.931 870.105C538.055 877.892 528.059 885.566 517.471 892.367L517.137 892.047C515.564 890.009 516.472 883.726 516.467 881.095L516.376 850.5L516.503 694.268L520.5 694.134L521.38 693.706C508.517 693.365 497.363 691.805 485.944 685.366C472.453 677.76 465.008 665.643 460.968 651.064C464.447 653.831 467.734 656.13 471.686 658.185C479.934 662.475 488.09 663.715 497.036 660.774C505.889 657.863 513.393 651.678 517.5 643.261L517.804 642.62C515.832 640.317 516.441 637.11 516.425 634.234L516.397 619.554L536.302 619.593C540.08 619.579 544.091 619.821 547.824 619.187L548.271 619.103Z"/>
	<path fill="#E1E1DE" d="M517.804 642.62L519.69 639.18C521.586 640.562 523.18 644.386 524.617 646.428C532.745 657.972 544.317 663.689 558.587 661.489C567.558 660.105 573.776 655.922 580.244 649.88C578.704 654.348 577.288 658.838 575.146 663.067C569.691 673.836 561.074 681.966 550.237 687.208C541.37 691.496 531.157 693.324 521.38 693.706C508.517 693.365 497.363 691.805 485.944 685.366C472.453 677.76 465.008 665.643 460.968 651.064C464.447 653.831 467.734 656.13 471.686 658.185C479.934 662.475 488.09 663.715 497.036 660.774C505.889 657.863 513.393 651.678 517.5 643.261L517.804 642.62Z"/>
</svg>
