<?xml version="1.0" encoding="utf-8" ?>
<svg xmlns="http://www.w3.org/2000/svg" xmlns:xlink="http://www.w3.org/1999/xlink" width="1024" height="1024">
	<path fill="#030303" transform="scale(1.6 1.6)" d="M311.069 79.5554C322.79 79.0311 334.552 79.333 346.129 81.3859C419.613 94.4175 476.231 162.554 471.247 237.344C468.685 275.791 445.304 325.102 426.909 357.812L403.174 397.012L377.349 432.635L396.118 435.615C426.928 441.167 490.074 456.422 503.819 486.406C522.963 528.17 439.146 549.861 407.79 555.806L347.395 563.216L328.896 563.477L251.068 558.789C220.781 554.677 176.587 544.938 152.315 526.218C124.331 504.635 131.038 481.754 158.588 464.527C188.899 445.572 228.51 437.589 263.407 432.737C226.496 385.358 172.057 296.911 169.477 235.709C166.065 154.729 230.543 82.4933 311.069 79.5554ZM268.299 442.644C236.829 444.871 192.449 456.15 166.221 471.686C119.317 499.468 156.641 522.557 191.531 534.609C217.55 543.596 243.938 548.015 271.222 550.862L298.438 553.316L321.693 553.657C337.645 553.632 353.571 552.989 369.422 551.061L404.219 546.25C407.838 545.62 411.899 545.219 415.384 544.13C433.068 540.17 503.529 522.013 495.979 493.533L495.229 491.246C485.302 463.658 402.257 443.613 369.771 442.39L336.779 479.796C321.872 495.851 323.44 500.728 308.865 485.228L295.92 471.021C293.146 467.908 272.009 442.731 270.937 442.5C270.311 442.365 268.994 442.599 268.316 442.633L268.299 442.644Z"/>
	<path fill="#D09602" transform="scale(1.6 1.6)" d="M313.983 90.1311C320.088 89.9859 326.296 89.7972 332.383 90.3407C392.877 95.7415 443.189 139.515 457.372 198.427C471.767 258.218 434.509 327.378 403.767 376.363L386.091 403.311L356.715 441.419L323.78 478.335L319.395 481.855C317.186 479.773 315.18 477.236 313.15 474.974L282.521 440.044L267.558 420.576C234.218 376.65 183.357 293.955 179.869 237.903C174.973 159.214 236.421 94.7315 313.983 90.1311Z"/>
	<path fill="#030303" transform="scale(1.6 1.6)" d="M317.395 128.577C365.333 126.623 410.215 165.13 419.164 211.562C430.805 271.961 386.879 327.335 324.766 330.685C270.222 332.936 223.875 289.414 220.429 235.267C216.864 179.238 262.583 131.879 317.395 128.577Z"/>
	<path fill="#D09602" transform="scale(1.6 1.6)" d="M314.917 139.82C356.961 137.634 393.038 163.566 405.94 203.841C423.617 259.022 384.34 315.223 326.015 319.932C320.386 320.091 314.557 320.22 308.957 319.54C260.337 313.638 225.497 266.604 231.143 218.767C236.129 176.524 273.039 143.424 314.917 139.82Z"/>
	<path fill="#030303" transform="scale(1.6 1.6)" d="M316.363 156.385C380.441 153.991 416.828 229.102 378.19 275.966C364.808 292.196 346.246 301.776 325.39 303.729C320.814 303.876 316.002 304.02 311.451 303.51C253.389 297.015 226.625 225.404 265.033 181.848C278.282 166.823 296.369 157.63 316.363 156.385Z"/>
	<path fill="white" transform="scale(1.6 1.6)" d="M316.755 166.691L317.268 166.644C371.042 162.113 403.488 230.068 368.529 270.962C356.653 284.854 341.611 292.209 323.675 293.62C268.04 295.816 237.079 231.339 271.58 190.49C282.972 177.002 299.136 168.195 316.755 166.691Z"/>
</svg>
